<svg xmlns="http://www.w3.org/2000/svg" viewBox="280 -30 240 610" width="100%" height="100%">
  <style>
    /* Keyframes for animations */
    @keyframes growStem {
      to { stroke-dashoffset: 0; }
    }

    @keyframes popLeaf {
      to { transform: scale(1); }
    }

    @keyframes wiggleBase {
      to { transform: rotate(6deg) scale(1.03); }
    }

    /* Stem Animation */
    .stem {
      stroke-dasharray: 400;
      stroke-dashoffset: 320;
      animation: growStem 1.5s cubic-bezier(0.4, 0.0, 0.2, 1) forwards;
    }

    /* Leaves Base States and Retract Animation */
    .leaf-anim {
      transform: scale(0);
      transform-origin: 0px 0px;
    }

    /* Leaves Sequential Grow Animation */
    .leaf-2 {
      animation: popLeaf 0.6s cubic-bezier(0.34, 1.56, 0.64, 1) 0.35s forwards;
    }
    
    .leaf-3 {
      animation: popLeaf 0.6s cubic-bezier(0.34, 1.56, 0.64, 1) 0.7s forwards;
    }
    
    .leaf-4 {
      animation: popLeaf 0.6s cubic-bezier(0.34, 1.56, 0.64, 1) 1.15s forwards;
    }

    /* Base Leaf Wiggle */
    .leaf-1-container {
      transform-origin: 403px 310px;
      animation: wiggleBase 0.8s ease-in-out forwards;
    }
  </style>

  <g class="illustration">
    
    <ellipse cx="400" cy="545" rx="75" ry="12" fill="#000000" opacity="0.1" />

    <g class="plant-group">
      <path class="stem" 
            d="M 400 380 Q 415 345, 403 310 T 397 240 T 403 170 T 400 85"
            fill="none" 
            stroke="#5C7C5A" 
            stroke-width="8" 
            stroke-linecap="round" 
            stroke-linejoin="round" />

      <g class="leaf-1-container">
        <g transform="translate(403, 310) rotate(-5)">
          <g class="leaf-1">
            <path d="M 0 0 C 20 -30, 60 -20, 65 0 C 60 20, 20 30, 0 0 Z" fill="#4A6B48" />
            <path d="M 0 0 Q 30 -5, 60 0" fill="none" stroke="#F2EAE0" stroke-width="2" opacity="0.4" stroke-linecap="round" />
          </g>
        </g>
      </g>

      <g transform="translate(397, 240) rotate(5)">
        <g class="leaf-anim leaf-2">
          <path d="M 0 0 C -20 -30, -60 -20, -65 0 C -60 20, -20 30, 0 0 Z" fill="#5C7C5A" />
          <path d="M 0 0 Q -30 -5, -60 0" fill="none" stroke="#F2EAE0" stroke-width="2" opacity="0.4" stroke-linecap="round" />
        </g>
      </g>

      <g transform="translate(403, 170) rotate(-10)">
        <g class="leaf-anim leaf-3">
          <path d="M 0 0 C 20 -30, 60 -20, 65 0 C 60 20, 20 30, 0 0 Z" fill="#6E8B5C" />
          <path d="M 0 0 Q 30 -5, 60 0" fill="none" stroke="#F2EAE0" stroke-width="2" opacity="0.4" stroke-linecap="round" />
        </g>
      </g>

      <g transform="translate(400, 85) rotate(0)">
        <g class="leaf-anim leaf-4">
          <path d="M 0 0 C -25 -25, -15 -60, 0 -65 C 15 -60, 25 -25, 0 0 Z" fill="#819C6E" />
          <path d="M 0 0 Q -5 -30, 0 -60" fill="none" stroke="#F2EAE0" stroke-width="2" opacity="0.4" stroke-linecap="round" />
        </g>
      </g>
    </g>

    <g class="pot">
      <path d="M 335 390 L 465 390 L 440 535 C 430 545, 370 545, 360 535 Z" fill="#D97757" />
      
      <rect x="315" y="365" width="170" height="25" rx="6" fill="#E88665" />
    </g>

  </g>
</svg>